<svg width="103" height="43" viewBox="0 0 103 43" fill="none" xmlns="http://www.w3.org/2000/svg">
<path d="M5.364 33.596C6.876 33.356 7.8 33.116 8.136 32.876C8.472 32.612 8.64 32.108 8.64 31.364V11.924C5.544 11.972 3.888 12.044 3.672 12.14C3.456 12.236 3.288 12.344 3.168 12.464C2.88 12.848 2.532 14.204 2.124 16.532L0.288 16.388C0.264 16.028 0.252 15.332 0.252 14.3C0.252 13.244 0.36 11.828 0.576 10.052H20.196C20.412 11.828 20.52 13.244 20.52 14.3C20.52 15.332 20.508 16.028 20.484 16.388L18.648 16.532C18.24 14.204 17.88 12.848 17.568 12.464C17.472 12.344 17.316 12.236 17.1 12.14C16.884 12.044 15.228 11.972 12.132 11.924V32.228C12.132 32.78 12.372 33.092 12.852 33.164L15.624 33.596L15.48 35H5.58L5.364 33.596ZM49.05 35L48.834 33.596C50.106 33.38 50.874 33.14 51.138 32.876C51.426 32.612 51.57 32.108 51.57 31.364V13.688C51.57 12.944 51.426 12.44 51.138 12.176C50.874 11.912 50.106 11.672 48.834 11.456L49.05 10.052H57.87L58.014 11.456L55.782 11.888C55.302 11.984 55.062 12.296 55.062 12.824V32.228C55.062 32.756 55.302 33.068 55.782 33.164L58.014 33.596L57.87 35H49.05ZM61.1789 35L60.9629 33.596C62.2349 33.38 63.0029 33.14 63.2669 32.876C63.5549 32.612 63.6989 32.108 63.6989 31.364V13.688C63.6989 12.944 63.5549 12.44 63.2669 12.176C63.0029 11.912 62.2349 11.672 60.9629 11.456L61.1789 10.052H70.6829C73.2989 10.052 75.3029 10.58 76.6949 11.636C78.0869 12.668 78.7829 14.12 78.7829 15.992C78.7829 17.48 78.3749 18.74 77.5589 19.772C76.7669 20.78 75.9149 21.428 75.0029 21.716V21.968C76.5389 22.256 77.8229 22.976 78.8549 24.128C79.8869 25.28 80.4029 26.684 80.4029 28.34C80.4029 29.972 79.6829 31.496 78.2429 32.912C76.8269 34.304 74.6429 35 71.6909 35H61.1789ZM67.1909 21.212H69.2069C71.1749 21.212 72.6149 20.792 73.5269 19.952C74.4629 19.088 74.9309 17.912 74.9309 16.424C74.9309 13.448 73.1549 11.96 69.6029 11.96H67.1909V21.212ZM67.1909 31.508C67.1909 32.204 67.3709 32.624 67.7309 32.768C68.0909 33.008 68.8229 33.128 69.9269 33.128C72.2309 33.128 73.8869 32.72 74.8949 31.904C75.9029 31.088 76.4069 29.912 76.4069 28.376C76.4069 26.144 75.5069 24.608 73.7069 23.768C72.8189 23.336 71.8109 23.12 70.6829 23.12H67.1909V31.508ZM83.468 35L83.252 33.596C84.524 33.38 85.292 33.14 85.556 32.876C85.844 32.612 85.988 32.108 85.988 31.364V13.688C85.988 12.944 85.844 12.44 85.556 12.176C85.292 11.912 84.524 11.672 83.252 11.456L83.468 10.052H100.244C100.388 10.94 100.46 11.828 100.46 12.716C100.46 13.58 100.436 14.564 100.388 15.668L98.336 15.92C98 14.264 97.76 13.232 97.616 12.824C97.472 12.392 97.304 12.164 97.112 12.14C96.536 12.068 95.804 12.02 94.916 11.996L89.48 11.888V21.572H94.88C95.192 21.572 95.576 20.72 96.032 19.016L97.148 19.124C97.148 20.876 97.172 22.1 97.22 22.796C97.292 23.492 97.328 23.912 97.328 24.056C97.352 24.2 97.4 24.548 97.472 25.1C97.568 25.652 97.628 26.036 97.652 26.252L96.356 26.468C95.972 25.1 95.708 24.26 95.564 23.948C95.444 23.636 95.3 23.48 95.132 23.48H89.48V33.164L92.684 33.128C95.396 33.128 97.052 32.984 97.652 32.696C97.724 32.648 97.772 32.624 97.796 32.624C98.204 32.504 98.732 31.088 99.38 28.376L101.36 28.556C101.384 28.964 101.396 29.696 101.396 30.752C101.396 31.784 101.264 33.2 101 35H83.468Z" fill="black"/>
<path d="M43.2 35L43.416 33.596C42.144 33.38 41.376 33.14 41.112 32.876C40.824 32.612 40.68 32.108 40.68 31.364V13.688C40.68 12.944 40.824 12.44 41.112 12.176C41.376 11.912 42.144 11.672 43.416 11.456L43.2 10.052H33.192C30.624 10.052 28.716 10.58 27.468 11.636C26.22 12.692 25.596 14.12 25.596 15.92C25.596 17.72 26.088 19.292 27.072 20.636C28.056 21.956 29.436 22.916 31.212 23.516V23.696C30.972 23.768 30.708 24.032 30.42 24.488L25.344 32.12C24.984 32.648 24.636 33.008 24.3 33.2C23.94 33.392 23.304 33.524 22.392 33.596L22.608 35H27.72L34.848 24.056H37.188V32.228C37.188 32.756 36.948 33.068 36.468 33.164L34.488 33.596L34.632 35H43.2ZM37.188 22.22H35.208C33.312 22.22 31.884 21.812 30.924 20.996C29.94 20.156 29.448 18.632 29.448 16.424C29.448 13.448 31.068 11.96 34.308 11.96H36.468C36.948 11.96 37.188 12.248 37.188 12.824V22.22Z" fill="black"/>
</svg>
